<svg xmlns="http://www.w3.org/2000/svg" width="18.459" height="23.841" viewBox="0 0 18.459 23.841">
  <g id="gas_drop_logo" transform="translate(-306.306 -474.31)">
    <path id="Path_9" data-name="Path 9" d="M316.562,475.491s-5.728,4.679-7.688,9.1a11.829,11.829,0,0,0-1.067,3.676c.037,1.4.21,3.846,1.258,5.371,1.823,2.686,7.07,3.017,7.07,3.017" transform="translate(0)" fill="none" stroke="#000" stroke-width="3"/>
    <path id="Path_10" data-name="Path 10" d="M307.481,476.2s4.817,3.769,7.052,8.438a11.658,11.658,0,0,1,1.143,3.859c-.042,1.475-.1,4.065-1.3,5.676a8.526,8.526,0,0,1-5.133,3.149c0,.012-.91,0-.91,0" transform="translate(7.588 -0.711)" fill="none" stroke="#000" stroke-width="3"/>
    <path id="Path_11" data-name="Path 11" d="M6.895,12.1s-.582,2.312.671,3.624A3.95,3.95,0,0,0,11.2,16.839" transform="translate(305.363 475.27)" fill="none" stroke="#63c99e" stroke-linecap="round" stroke-width="2.3"/>
  </g>
</svg>
