<svg xmlns="http://www.w3.org/2000/svg" width="155.581" height="73.956" viewBox="0 0 155.581 73.956">
  <g id="gaspump_logo" transform="translate(-313.976 -429.738)">
    <g id="gaspump_logo-2" data-name="gaspump_logo" transform="translate(315.494 431.248)">
      <path id="Path_2" data-name="Path 2" d="M278.575,386l1.693,10.885" transform="translate(-222.714 -365.599)" fill="none" stroke="#000" stroke-width="3"/>
      <path id="Path_3" data-name="Path 3" d="M306.54,417.4s9.451-22.23,12.555-24.989,8.464,0,8.464,0L357.606,407.9" transform="translate(-215.095 -363.615)" fill="none" stroke="#000" stroke-width="3"/>
      <path id="Path_4" data-name="Path 4" d="M346.7,399.832s1.411,17.63-1.693,20.237-10.157,3.066-12.978,1.226-23.276-12.878-23.276-12.878" transform="translate(-214.491 -360.305)" fill="none" stroke="#000" stroke-width="3"/>
      <path id="Path_5" data-name="Path 5" d="M340.353,421.683s-10.016-16.9-11.991-18.438-8.182-2.453-12.414,0a41.21,41.21,0,0,1-7.053,3.373" transform="translate(-214.454 -359.578)" fill="none" stroke="#000" stroke-width="3"/>
      <g id="Group_1" data-name="Group 1" transform="translate(0)">
        <path id="Path_1" data-name="Path 1" d="M235.5,410.359s-.246,3.919,1.754,6.074,6.2,2.273,6.2,2.273l18.093-13.173,31.752-3.066,1.3,3.066h7.379l7.379,13.444,15.788,9.2,2.062-2.477,27.236,15.213s9.115,3.774,13.347-1.651,10.634-23.822,10.634-23.822a4.006,4.006,0,0,0,3.8-2.476c1.3-2.712,5.831-13.23,5.831-13.23.217,0-35.43-16.487-35.43-16.487a6.826,6.826,0,0,0-.524-8.081c-3.255-4.363-12.75-3.9-12.75-3.9s-26.792.986-28.854,2.755-8.518,10.849-8.518,10.849l-10.688,3.3v3.022l-31.786,3.167Z" transform="translate(-235.494 -371.248)" fill="none" stroke="#000" stroke-width="3"/>
        <path id="Path_13" data-name="Path 13" d="M0-.015S3.628-.527,5.627,1.472,8,7.983,8,7.983" transform="translate(0.805 39.403)" fill="none" stroke="#000" stroke-width="3"/>
      </g>
    </g>
    <text id="smarTank" transform="translate(422.131 451.484) rotate(24)" font-size="9" font-family="SegoeUI-Semibold, Segoe UI" font-weight="600"><tspan x="0" y="0">smarTank</tspan></text>
  </g>
</svg>
