<svg xmlns="http://www.w3.org/2000/svg" width="78.384" height="78.384" viewBox="0 0 78.384 78.384">
  <g id="Pointer_for_logo" transform="translate(0 31.574) rotate(-34)">
    <path id="Path_21" data-name="Path 21" d="M0,0H56.463V56.463H0Z" fill="none"/>
    <path id="Path_22" data-name="Path 22" d="M21.468,2A16.456,16.456,0,0,0,5,18.468C5,30.82,21.468,49.053,21.468,49.053S37.937,30.82,37.937,18.468A16.456,16.456,0,0,0,21.468,2ZM9.705,18.468a11.763,11.763,0,0,1,23.526,0c0,6.776-6.776,16.915-11.763,23.244C16.575,35.431,9.705,25.173,9.705,18.468Z" transform="translate(6.763 2.705)"/>
    <circle id="Ellipse_2" data-name="Ellipse 2" cx="5.882" cy="5.882" r="5.882" transform="translate(22.35 15.292)" fill="#63c99e"/>
  </g>
</svg>
