<svg xmlns="http://www.w3.org/2000/svg" xmlns:xlink="http://www.w3.org/1999/xlink" width="273.96" height="119.96" viewBox="0 0 273.96 119.96">
  <defs>
    <filter id="smarTank" x="45.96" y="25.96" width="228" height="94" filterUnits="userSpaceOnUse">
      <feOffset dy="3" input="SourceAlpha"/>
      <feGaussianBlur stdDeviation="3" result="blur"/>
      <feFlood flood-opacity="0.161"/>
      <feComposite operator="in" in2="blur"/>
      <feComposite in="SourceGraphic"/>
    </filter>
  </defs>
  <g id="smarTank_logo" transform="translate(855.96 -1501.04)">
    <g transform="matrix(1, 0, 0, 1, -855.96, 1501.04)" filter="url(#smarTank)">
      <text id="smarTank-2" data-name="smarTank" transform="translate(54.96 85.96)" font-size="64" font-family="Praise-Regular, Praise"><tspan x="0" y="0">smar</tspan><tspan y="0" fill="#63c99e">T</tspan><tspan y="0">ank</tspan></text>
    </g>
    <g id="location_on_black_24dp_2_" data-name="location_on_black_24dp (2)" transform="translate(-855.96 1532.613) rotate(-34)">
      <path id="Path_21" data-name="Path 21" d="M0,0H56.463V56.463H0Z" fill="none"/>
      <path id="Path_22" data-name="Path 22" d="M21.468,2A16.456,16.456,0,0,0,5,18.468C5,30.82,21.468,49.053,21.468,49.053S37.937,30.82,37.937,18.468A16.456,16.456,0,0,0,21.468,2ZM9.705,18.468a11.763,11.763,0,0,1,23.526,0c0,6.776-6.776,16.915-11.763,23.244C16.575,35.431,9.705,25.173,9.705,18.468Z" transform="translate(6.763 2.705)"/>
      <circle id="Ellipse_2" data-name="Ellipse 2" cx="5.882" cy="5.882" r="5.882" transform="translate(22.35 15.292)" fill="#63c99e"/>
    </g>
  </g>
</svg>
