<svg xmlns="http://www.w3.org/2000/svg" width="171" height="104" viewBox="0 0 171 104">
  <g id="Group_17" data-name="Group 17" transform="translate(-581 5)">
    <g id="savings_black_24dp" transform="translate(617 36)">
      <rect id="Rectangle_1" data-name="Rectangle 1" width="16" height="16" fill="none"/>
    </g>
    <g id="Group_20" data-name="Group 20">
      <g id="Group_19" data-name="Group 19">
        <g id="local_gas_station_black_24dp" transform="translate(609 12)">
          <path id="Path_24" data-name="Path 24" d="M0,0H48V48H0Z" fill="none"/>
          <path id="Path_25" data-name="Path 25" d="M42.708,12.87l.025-.023L33.6,4.167,31,6.64l5.179,4.923A5.834,5.834,0,0,0,32.227,17a5.993,5.993,0,0,0,6.136,5.833,6.554,6.554,0,0,0,2.455-.49V39.167a2.458,2.458,0,0,1-4.909,0v-10.5A4.807,4.807,0,0,0,31,24H28.545V7.667A4.807,4.807,0,0,0,23.636,3H8.909A4.807,4.807,0,0,0,4,7.667V45H28.545V27.5h3.682V39.167a6.144,6.144,0,0,0,12.273,0V17A5.7,5.7,0,0,0,42.708,12.87ZM23.636,27.5V40.333H8.909V24H23.636Zm0-8.167H8.909V7.667H23.636Zm14.727,0A2.336,2.336,0,1,1,40.818,17,2.4,2.4,0,0,1,38.364,19.333Z" transform="translate(0 0)"/>
        </g>
        <g id="Group_18" data-name="Group 18">
          <g id="location_on_black_24dp" transform="translate(581 -5)">
            <path id="Path_28" data-name="Path 28" d="M0,0H104V104H0Z" fill="none"/>
            <path id="Path_29" data-name="Path 29" d="M52,5.086c-26.355,0-40.966,13-40.966,33.645C11.038,66.744,52,101.711,52,101.711S92.568,66.744,92.568,38.731C92.568,18.082,78.359,5.086,52,5.086ZM17.953,38.731C17.953,24,33.208,12.052,52,12.052S86.054,24,86.054,38.731C86.054,54.1,66.441,77.1,52,91.449,37.839,77.2,17.953,53.938,17.953,38.731Z" transform="translate(0 -2.086)"/>
          </g>
        </g>
      </g>
      <g id="Group_15" data-name="Group 15" transform="translate(619 38)">
        <path id="Path_30" data-name="Path 30" d="M9.8,6.632a.6.6,0,1,1,.6.579A.591.591,0,0,1,9.8,6.632ZM5.6,6.053h3V4.895h-3ZM14,5.184V9.219l-1.692.544L11.3,13H8V11.842H6.8V13H3.5S2,8.1,2,6.342A3.242,3.242,0,0,1,5.3,3.158h3A3.034,3.034,0,0,1,10.7,2a.883.883,0,0,1,.9.868.787.787,0,0,1-.072.336,2.723,2.723,0,0,0-.192.666L12.7,5.184ZM12.8,6.342h-.6L10.1,4.316a4.039,4.039,0,0,1,.156-1.106A1.787,1.787,0,0,0,9,4.316H5.3A2.066,2.066,0,0,0,3.2,6.342a30.67,30.67,0,0,0,1.206,5.5H5.6V10.684H9.2v1.158h1.206l.93-2.982L12.8,8.386Z" transform="translate(-2 -2)"/>
      </g>
    </g>
    <text id="smarTank" transform="translate(685 47)" font-size="16" font-family="Mukta-Medium, Mukta" font-weight="500"><tspan x="0" y="0">smarTank</tspan></text>
  </g>
</svg>
