<svg xmlns="http://www.w3.org/2000/svg" width="48.862" height="48.862" viewBox="0 0 48.862 48.862">
  <g id="Pointer_for_logo_small" transform="translate(0 19.682) rotate(-34)">
    <path id="Path_21" data-name="Path 21" d="M0,0H35.2V35.2H0Z" fill="none"/>
    <path id="Path_22" data-name="Path 22" d="M15.266,2A10.258,10.258,0,0,0,5,12.266c0,7.7,10.266,19.065,10.266,19.065S25.532,19.965,25.532,12.266A10.258,10.258,0,0,0,15.266,2ZM7.933,12.266a7.333,7.333,0,0,1,14.666,0c0,4.224-4.224,10.545-7.333,14.49C12.215,22.84,7.933,16.446,7.933,12.266Z" transform="translate(2.333 0.933)"/>
    <circle id="Ellipse_2" data-name="Ellipse 2" cx="3.666" cy="3.666" r="3.666" transform="translate(13.932 9.533)" fill="#63c99e"/>
  </g>
</svg>
