<svg xmlns="http://www.w3.org/2000/svg" xmlns:xlink="http://www.w3.org/1999/xlink" width="134.477" height="59.592" viewBox="0 0 134.477 59.592">
  <defs>
    <filter id="smarTank" x="11.477" y="3.592" width="123" height="56" filterUnits="userSpaceOnUse">
      <feOffset dy="3" input="SourceAlpha"/>
      <feGaussianBlur stdDeviation="3" result="blur"/>
      <feFlood flood-opacity="0.161"/>
      <feComposite operator="in" in2="blur"/>
      <feComposite in="SourceGraphic"/>
    </filter>
  </defs>
  <g id="Small_logo" transform="translate(981.477 -1557.408)">
    <g id="smarTank_logo" transform="translate(-160 7)">
      <g transform="matrix(1, 0, 0, 1, -821.48, 1550.41)" filter="url(#smarTank)">
        <text id="smarTank-2" data-name="smarTank" transform="translate(20.48 36.59)" font-size="32" font-family="Praise-Regular, Praise"><tspan x="0" y="0">smar</tspan><tspan y="0" fill="#63c99e">T</tspan><tspan y="0">ank</tspan></text>
      </g>
    </g>
    <g id="Pointer_for_logo" transform="translate(-981.477 1569.499) rotate(-34)">
      <path id="Path_21" data-name="Path 21" d="M0,0H21.621V21.621H0Z" fill="none"/>
      <path id="Path_22" data-name="Path 22" d="M11.306,2A6.3,6.3,0,0,0,5,8.306c0,4.73,6.306,11.711,6.306,11.711s6.306-6.982,6.306-11.711A6.3,6.3,0,0,0,11.306,2ZM6.8,8.306a4.5,4.5,0,0,1,9.009,0c0,2.595-2.595,6.477-4.5,8.9C9.432,14.8,6.8,10.874,6.8,8.306Z" transform="translate(-0.496 -0.198)"/>
      <circle id="Ellipse_2" data-name="Ellipse 2" cx="2.252" cy="2.252" r="2.252" transform="translate(8.558 5.856)" fill="#63c99e"/>
    </g>
  </g>
</svg>
